<svg width="274" height="274" viewBox="0 0 274 274" fill="none" xmlns="http://www.w3.org/2000/svg">
<path d="M128.084 52.8163C143.535 51.8035 170.972 53.8114 185.428 59.7762C185.597 68.0401 185.694 76.3063 185.718 84.5721C188.433 82.9723 191.023 81.7863 193.924 81.1815C195.166 80.8071 202.333 79.6933 201.724 82.4286C200.132 89.653 199.267 97.0435 198.838 104.432C198.529 109.776 198.654 111.837 203.255 114.831C205.519 119.993 209.99 123.749 210.323 128.672C210.797 135.694 203.081 141.707 203.209 149.269C203.414 159.464 209.45 168.832 208.288 179.251C207.435 188.337 201.573 194.396 196.871 201.366C188.405 213.915 181.846 220.891 165.603 219.456C147.775 217.88 138.491 204.369 123.9 196.26C112.963 190.181 99.4796 189.889 91.4741 178.924C86.6304 172.671 84.1694 165.451 84.8228 157.448C85.1014 154.041 87.3287 149.75 91.3843 153.75C92.0051 154.364 92.1255 158.028 92.3814 159.192C93.1825 162.834 94.6382 166.326 96.7798 169.402C101.846 176.84 108.877 178.779 116.659 182.277C121.397 184.407 125.908 186.864 130.392 189.54C138.521 194.352 145.116 201.32 153.273 206.012C161.588 210.794 173.936 213.108 182.273 207.121C183.762 206.052 185.977 204.146 186.272 202.309C185.172 199.21 176.824 201.802 174.261 202.143C168.143 203.125 155.824 202.98 150.803 198.523C138.239 187.369 153.125 166.834 150.366 152.666C148.066 140.857 142.715 140.888 132.805 138.546C128.649 137.543 124.545 136.331 120.51 134.916C118.359 134.168 116.182 133.485 114.34 132.133C112.994 131.144 112.515 129.099 113.859 128.027C118.186 124.577 127.522 124.018 132.764 123.925C140.281 123.791 148.62 125.676 153.952 131.165C163.243 140.362 161.687 157.46 158.935 169.108C155.355 184.258 150.458 194.36 171.991 193.423C181.707 192.132 182.391 188.992 173.871 184.341C171.828 183.226 168.717 181.224 167.245 179.383C165.134 176.807 166.715 173.308 170.072 173.352C178.77 173.468 189.148 172.505 197.709 173.832C193.67 166.208 188.349 159.29 184.081 151.797C180.336 145.223 179.12 136.436 185.033 130.661C187.209 128.535 189.064 127.521 191.751 126.089C190.053 122.849 187.362 119.047 184.948 116.322C169.761 99.3263 146.602 91.8183 124.332 96.6717C118.036 98.0758 112.009 101.328 104.958 100.75C94.1386 99.8622 69.5194 76.313 67.4653 99.7518C67.0739 108.557 71.8965 116.991 78.353 122.669C80.0315 124.144 85.2951 126.305 84.9946 128.528C83.7937 130.473 80.7159 130.68 78.9087 131.976C74.1208 135.412 68.5353 157.673 67.5181 164.275C62.3837 197.592 73.323 228.87 101.088 248.999C102.852 250.277 104.696 251.533 106.585 252.615C108.44 253.677 113.745 255.483 114.718 257.154C115 257.638 115.032 258.218 114.841 258.741C114.554 259.528 113.935 260.031 113.159 260.291C110.522 261.171 105.174 258.34 102.733 257.229C85.0866 249.195 69.6098 231.258 62.9136 213.182C52.6683 185.527 57.5247 153.375 69.5142 127.108C60.5566 116.786 54.6885 102.357 60.7525 89.2069C66.1688 77.4606 78.24 78.0892 88.2124 82.996C88.2836 75.3606 88.1054 67.4072 88.3618 59.8055C97.3888 55.4337 118.135 53.4639 128.084 52.8163ZM135.642 13.0311C136.763 12.9358 137.668 13.0608 138.745 13.3856C146.202 15.6338 221.569 41.9659 223.342 43.5477C223.86 44.0096 223.984 44.3703 224 45.0458C223.003 47.159 214.807 49.7078 212.084 50.7909C212.232 58.1342 212.129 65.8265 212.141 73.1971C212.44 73.4025 212.733 73.615 213.022 73.8348C215.761 75.9529 215.618 78.2682 213.561 80.8241C216.625 87.7339 217.312 95.4858 217.909 102.941C218.065 104.886 218.505 107.452 217.987 109.33C217.725 110.28 216.922 110.907 216.079 111.339C213.191 112.82 208.129 112.989 205.07 111.926C204.151 111.606 203.201 111.077 202.777 110.157C201.139 106.608 204.975 85.7104 206.495 81.0409C204.042 78.1775 204.521 75.9845 207.341 73.6903L207.296 52.6044L199.346 55.6102C198.401 55.9819 194.012 57.6481 192.459 58.2596C188.475 59.8282 189.873 56.9964 187.05 56.1053C155.517 46.1556 118.572 45.8644 87.0425 55.9706C85.3918 56.4999 84.5477 57.5563 83.9751 59.0526L63.6177 51.5321C60.0018 50.194 56.3625 48.896 52.7808 47.453C51.9351 47.3492 49.0093 45.4148 50.3433 44.2577C52.8625 42.0743 61.2318 39.5025 64.0523 38.4842L83.2153 31.5712C100.636 25.2387 118.113 19.0585 135.642 13.0311Z" fill="#AC5113"/>
</svg>
